# xmcd
#
# Track frame offsets:
#	150
#	15043
#	31913
#	42845
#	59038
#	74868
#	89225
#	107388
#	122110
#	136540
#	153480
#	168695
#	183195
#	201988
#
# Disc length: 2863 seconds
#
# Revision: 2
# Processed by: cddbd v1.5.2PL0 Copyright (c) Steve Scherf et al.
# Submitted via: audiograbber 1.83.01
#
DISCID=c10b2d0e
DTITLE=Various Artist - Country Hot Hits Volume 19
DYEAR=1900
DGENRE=
TTITLE0=REba McEntire - Take It Back
TTITLE1=Vince Gill - Don't Let Our Love Start Slipping Away
TTITLE2=Alan Jackson - She's Got The Rhythm (And I Got The Blues)
TTITLE3=Lionel Cartwright - Standing On The Promises
TTITLE4=Billy Ray Cyrus - Wher'm I Gonna Live
TTITLE5=Radney Foster - Just Call Me Lonesome
TTITLE6=Trisha Yearwood - Walkaway Joe
TTITLE7=Tracy Lawrence - Somebody Paints The Wall
TTITLE8=JOhn Michael Montgomery - Life's A Dance
TTITLE9=Michelle Wright - He Would Be Sixteen
TTITLE10=Little Texas - What Were You Thinkin'
TTITLE11=Michael White - She Likes To Dance
TTITLE12=Tanya Tucker - Two Sparrows In A Hurricane
TTITLE13=Aaron Tippin - I Was Born With A Broken Heart
EXTD=
EXTT0=McEntire - Reba
EXTT1=Gill - Vince
EXTT2=Jackson - Alan
EXTT3=Cartwright - Lionel
EXTT4=Cyrus - Billy Ray
EXTT5=Foster - Rodney
EXTT6=Yearwood - Trisha
EXTT7=Lawrence - Tracy
EXTT8=Montgomery - John Michael
EXTT9=Wright - Michelle
EXTT10=Little Texas
EXTT11=White - Michael
EXTT12=Tucker - Tanya
EXTT13=Tippin - Aaron
PLAYORDER=
